<?xml version="1.0" encoding="UTF-8"?>
<svg width="8px" height="14px" viewBox="0 0 8 14" version="1.1" xmlns="http://www.w3.org/2000/svg" xmlns:xlink="http://www.w3.org/1999/xlink">
    <!-- Generator: Sketch 59.1 (86144) - https://sketch.com -->
    <title>后退</title>
    <desc>Created with Sketch.</desc>
    <g id="页面-1" stroke="none" stroke-width="1" fill-rule="evenodd">
        <g id="2.5相册详情-添加图片" transform="translate(-475.000000, -223.000000)" fill-rule="nonzero">
            <g id="操作栏" transform="translate(468.000000, 220.000000)">
                <g id="后退" transform="translate(7.000000, 3.000000)">
                    <path d="M1.75109228,13 C1.55885079,13 1.36660929,12.9164491 1.22044221,12.7493473 C0.926519264,12.4133273 0.926519264,11.8720627 1.22044221,11.5360427 L5.18760757,7.00068112 L1.22044221,2.46531956 C0.926519264,2.12929958 0.926519264,1.58803496 1.22044221,1.25201498 C1.51436515,0.915995005 1.98781941,0.915995005 2.28174235,1.25201498 L6.77955779,6.39402883 C7.07348074,6.73004881 7.07348074,7.27131343 6.77955779,7.60733341 L2.28174235,12.7493473 C2.13557527,12.9164491 1.94333377,13 1.75109228,13 Z" transform="translate(4.000000, 7.000000) scale(-1, 1) translate(-4.000000, -7.000000) "></path>
                </g>
            </g>
        </g>
    </g>
</svg>