<?xml version="1.0" encoding="UTF-8"?>
<svg width="16px" height="16px" viewBox="0 0 16 16" version="1.1" xmlns="http://www.w3.org/2000/svg" xmlns:xlink="http://www.w3.org/1999/xlink">
    <title>形状</title>
    <g id="页面-1" stroke="none" stroke-width="1" fill="none" fill-rule="evenodd">
        <g id="6.0搜索" transform="translate(-1728.000000, -40.000000)" fill="#757575" fill-rule="nonzero">
            <g id="操作栏" transform="translate(280.000000, 30.000000)">
                <g id="搜索" transform="translate(1440.000000, 2.000000)">
                    <g id="形状-2" transform="translate(8.000000, 8.000000)">
                        <path d="M12.2786254,11.2838044 L14.7938201,13.798999 C15.0687266,14.0739056 15.0687266,14.5196171 14.7938201,14.7945236 C14.5189136,15.0694302 14.073202,15.0694302 13.7982955,14.7945237 L11.2838044,12.2786254 C10.1628635,13.1772156 8.76861044,13.6659612 7.33195863,13.6639173 C3.83671746,13.6639173 1,10.8271998 1,7.33195863 C1,3.83671746 3.83671746,1 7.33195863,1 C10.8271998,1 13.6639173,3.83671746 13.6639173,7.33195863 C13.6659612,8.76861044 13.1772156,10.1628635 12.2786254,11.2838044 L12.2786254,11.2838044 Z M10.8673022,10.7617695 C11.7601878,9.8435551 12.2588324,8.61272339 12.2568214,7.33195863 C12.2568214,4.61062351 10.0525902,2.40710193 7.33195863,2.40710193 C4.61062351,2.40710193 2.40710193,4.61062353 2.40710193,7.33195863 C2.40710193,10.0525902 4.61062353,12.2568214 7.33195863,12.2568214 C8.61272339,12.2588324 9.8435551,11.7601878 10.7617695,10.8673022 L10.8673022,10.7617695 Z" id="形状"></path>
                    </g>
                </g>
            </g>
        </g>
    </g>
</svg>