<?xml version="1.0" encoding="UTF-8"?>
<svg width="20px" height="20px" viewBox="0 0 20 20" version="1.1" xmlns="http://www.w3.org/2000/svg" xmlns:xlink="http://www.w3.org/1999/xlink">
    <title>矩形</title>
    <g id="页面-1" stroke="none" stroke-width="1" fill="none" fill-rule="evenodd">
        <g id="1.2时间轴-选中" transform="translate(-651.000000, -537.000000)" fill="#D3D7E4">
            <g id="时间线" transform="translate(468.000000, 281.000000)">
                <g id="星期天" transform="translate(0.000000, 216.000000)">
                    <g id="图片2" transform="translate(175.000000, 32.000000)">
                        <g id="矩形-2" transform="translate(8.000000, 8.000000)">
                            <path d="M10,0 C15.5228475,-1.01453063e-15 20,4.4771525 20,10 C20,15.5228475 15.5228475,20 10,20 C4.4771525,20 6.76353751e-16,15.5228475 0,10 C-6.76353751e-16,4.4771525 4.4771525,1.01453063e-15 10,0 Z M14.7686115,6.2360441 C14.4660152,5.91265165 13.9932778,5.92277834 13.7014986,6.25890315 L13.7014986,6.25890315 L13.7004985,6.25890315 L8.83498356,11.9279482 L6.30271555,8.941413 L6.21970677,8.8568345 C5.92333267,8.59900226 5.50763622,8.62215293 5.23460251,8.91169623 C5.09003568,9.06436169 5.00553446,9.27727169 5.00026226,9.50214192 C4.99499007,9.72701215 5.06939364,9.94478802 5.20659954,10.1060817 L5.20659954,10.1060817 L8.28192502,13.7360993 L8.36793412,13.8229637 C8.67401964,14.0873219 9.10401733,14.0521511 9.37404061,13.7406711 L9.37404061,13.7406711 L14.7896138,7.43042961 L14.8616214,7.33327863 C15.0770109,6.99301199 15.0371466,6.52273457 14.7686115,6.2360441 Z" id="形状结合"></path>
                        </g>
                    </g>
                </g>
            </g>
        </g>
    </g>
</svg>