<?xml version="1.0" encoding="UTF-8"?>
<svg width="14px" height="14px" viewBox="0 0 14 14" version="1.1" xmlns="http://www.w3.org/2000/svg" xmlns:xlink="http://www.w3.org/1999/xlink">
    <!-- Generator: Sketch 59.1 (86144) - https://sketch.com -->
    <title>cuo</title>
    <desc>Created with Sketch.</desc>
    <g id="页面-1" stroke="none" stroke-width="1" fill-rule="evenodd">
        <g id="4相册-添加到相册a" transform="translate(-16.000000, -59.000000)">
            <g id="导航栏" transform="translate(0.000000, 44.000000)">
                <g id="关闭" transform="translate(16.000000, 15.000000)">
                    <g id="cuo">
                        <path d="M13.5860021,1.73553719 L1.737797,13.5860021 C1.34232955,13.9814695 0.698282541,13.9814695 0.300555269,13.5860021 C-0.0949121901,13.1905346 -0.0949121901,12.5464876 0.300555269,12.1487603 L12.1487603,0.300555269 C12.5442278,-0.0949121901 13.1882748,-0.0949121901 13.5860021,0.300555269 C13.9837293,0.696022727 13.9837293,1.34006973 13.5860021,1.73553719 L13.5860021,1.73553719 Z" id="路径"></path>
                        <path d="M13.5860021,13.5860021 C13.1905346,13.9814695 12.5464876,13.9814695 12.1487603,13.5860021 L0.300555269,1.73553719 C-0.0949121901,1.34006973 -0.0949121901,0.696022727 0.300555269,0.298295455 C0.696022727,-0.0994318182 1.34006973,-0.0971720041 1.737797,0.298295455 L13.5860021,12.1465005 C13.9837293,12.5464876 13.9837293,13.1882748 13.5860021,13.5860021 Z" id="路径"></path>
                    </g>
                </g>
            </g>
        </g>
    </g>
</svg>